<svg width="1024" height="1024" viewBox="0 0 1024 1024" xmlns="http://www.w3.org/2000/svg">
  <defs>
    <!-- 深空底色 -->
    <linearGradient id="bg" x1="0" y1="0" x2="0" y2="1">
      <stop offset="0" stop-color="#121b30"/>
      <stop offset="0.55" stop-color="#0d1424"/>
      <stop offset="1" stop-color="#090d16"/>
    </linearGradient>
    <!-- 星云三色晕 -->
    <radialGradient id="nebulaBlue" cx="0.36" cy="0.36" r="0.55">
      <stop offset="0" stop-color="#5b8cff" stop-opacity="0.78"/>
      <stop offset="0.55" stop-color="#5b8cff" stop-opacity="0.28"/>
      <stop offset="1" stop-color="#5b8cff" stop-opacity="0"/>
    </radialGradient>
    <radialGradient id="nebulaViolet" cx="0.64" cy="0.68" r="0.6">
      <stop offset="0" stop-color="#b47cf0" stop-opacity="0.7"/>
      <stop offset="0.5" stop-color="#b47cf0" stop-opacity="0.24"/>
      <stop offset="1" stop-color="#b47cf0" stop-opacity="0"/>
    </radialGradient>
    <radialGradient id="nebulaCyan" cx="0.56" cy="0.4" r="0.38">
      <stop offset="0" stop-color="#4dd0e1" stop-opacity="0.5"/>
      <stop offset="1" stop-color="#4dd0e1" stop-opacity="0"/>
    </radialGradient>
    <!-- 提示符渐变 -->
    <linearGradient id="prompt" x1="0" y1="0" x2="1" y2="1">
      <stop offset="0" stop-color="#ffffff"/>
      <stop offset="1" stop-color="#b9d0ff"/>
    </linearGradient>
  </defs>

  <!-- 背景与内描边 -->
  <rect x="0" y="0" width="1024" height="1024" rx="232" fill="url(#bg)"/>
  <rect x="6" y="6" width="1012" height="1012" rx="226" fill="none" stroke="#ffffff" stroke-opacity="0.07" stroke-width="10"/>

  <!-- 星云 -->
  <ellipse cx="392" cy="368" rx="340" ry="268" fill="url(#nebulaBlue)"/>
  <ellipse cx="636" cy="656" rx="372" ry="312" fill="url(#nebulaViolet)"/>
  <ellipse cx="566" cy="420" rx="252" ry="188" fill="url(#nebulaCyan)"/>
  <!-- 旋臂 -->
  <path d="M320 656 C 372 486, 556 420, 706 474" stroke="#8fb0ff" stroke-opacity="0.42" stroke-width="48" fill="none" stroke-linecap="round"/>
  <path d="M696 300 C 572 376, 486 522, 528 706" stroke="#d0a4f7" stroke-opacity="0.4" stroke-width="40" fill="none" stroke-linecap="round"/>

  <!-- 星点 -->
  <circle cx="238" cy="268" r="10" fill="#ffffff" fill-opacity="0.9"/>
  <circle cx="300" cy="210" r="6" fill="#ffffff" fill-opacity="0.65"/>
  <circle cx="792" cy="560" r="8" fill="#ffffff" fill-opacity="0.75"/>
  <circle cx="742" cy="806" r="7" fill="#ffffff" fill-opacity="0.6"/>
  <circle cx="470" cy="846" r="6" fill="#3ddc97" fill-opacity="0.9"/>
  <!-- 四芒星 -->
  <path d="M756 172 L772 224 L824 240 L772 256 L756 308 L740 256 L688 240 L740 224 Z" fill="#ffffff" fill-opacity="0.95"/>
  <path d="M212 560 L222 592 L254 602 L222 612 L212 644 L202 612 L170 602 L202 592 Z" fill="#3ddc97" fill-opacity="0.85"/>

  <!-- 终端提示符 > -->
  <path d="M300 402 L512 584 L300 766" stroke="url(#prompt)" stroke-width="84" fill="none" stroke-linecap="round" stroke-linejoin="round"/>
  <!-- 光标 -->
  <rect x="596" y="712" width="196" height="72" rx="34" fill="url(#prompt)"/>
</svg>
